<svg xmlns="http://www.w3.org/2000/svg" width="22" height="22" fill="currentColor" viewBox="0 0 24 24"><path d="M12 18a6 6 0 1 0-6-6 6 6 0 0 0 6 6m0-10a4 4 0 1 1-4 4 4 4 0 0 1 4-4m-1-5V2a1 1 0 0 1 2 0v1a1 1 0 0 1-2 0m1 17a1 1 0 0 1 1 1v1a1 1 0 0 1-2 0v-1a1 1 0 0 1 1-1m5.66-13.66a1 1 0 0 1 0-1.41l.7-.7a1 1 0 0 1 1.42 1.4l-.7.71a1 1 0 0 1-1.42 0M6.34 17.66a1 1 0 0 1 0 1.41l-.7.7a1 1 0 0 1-1.42-1.4l.7-.71a1 1 0 0 1 1.42 0M23 12a1 1 0 0 1-1 1h-1a1 1 0 0 1 0-2h1a1 1 0 0 1 1 1M1 12a1 1 0 0 1 1-1h1a1 1 0 0 1 0 2H2a1 1 0 0 1-1-1m18.07 5.66.7.7a1 1 0 1 1-1.4 1.42l-.71-.7a1 1 0 0 1 1.41-1.42M4.22 5.64a1 1 0 0 1 1.42-1.42l.7.7a1 1 0 1 1-1.41 1.42Z"/></svg>